<svg width="110" height="110" viewBox="0 0 110 110" fill="none" xmlns="http://www.w3.org/2000/svg">
<path d="M60.8153 16.8153C62.1905 15.4406 64.0555 14.6682 66 14.6682C67.9445 14.6682 69.8095 15.4406 71.1847 16.8153L104.185 49.8153C105.559 51.1905 106.332 53.0555 106.332 55C106.332 56.9445 105.559 58.8095 104.185 60.1847L71.1847 93.1847C69.8016 94.5205 67.9492 95.2597 66.0264 95.243C64.1036 95.2262 62.2643 94.455 60.9047 93.0953C59.545 91.7357 58.7738 89.8964 58.757 87.9736C58.7403 86.0508 59.4795 84.1984 60.8153 82.8153L80.6667 62.3333H11C9.05507 62.3333 7.18981 61.5607 5.81454 60.1855C4.43927 58.8102 3.66666 56.9449 3.66666 55C3.66666 53.0551 4.43927 51.1898 5.81454 49.8146C7.18981 48.4393 9.05507 47.6667 11 47.6667H80.6667L60.8153 27.1847C59.4405 25.8095 58.6682 23.9445 58.6682 22C58.6682 20.0555 59.4405 18.1905 60.8153 16.8153Z" fill="#CFE3FA"/>
</svg>
